<?xml version="1.0" encoding="us-ascii" standalone="no"?><svg xmlns="http://www.w3.org/2000/svg" xmlns:xlink="http://www.w3.org/1999/xlink" contentStyleType="text/css" height="1101px" preserveAspectRatio="none" style="width:505px;height:1101px;background:#FFFFFF;" version="1.1" viewBox="0 0 505 1101" width="505px" zoomAndPan="magnify"><defs/><g><ellipse cx="255.5" cy="20" fill="#222222" rx="10" ry="10" style="stroke:#222222;stroke-width:1.0;"/><rect fill="#F1F1F1" height="33.9688" rx="12.5" ry="12.5" style="stroke:#181818;stroke-width:0.5;" width="163" x="174" y="50"/><text fill="#000000" font-family="sans-serif" font-size="12" lengthAdjust="spacing" textLength="143" x="184" y="71.1387">Receive input Objective</text><rect fill="#F1F1F1" height="33.9688" rx="12.5" ry="12.5" style="stroke:#181818;stroke-width:0.5;" width="319" x="96" y="103.9688"/><text fill="#000000" font-family="sans-serif" font-size="12" lengthAdjust="spacing" textLength="299" x="106" y="125.1074">Refine Objective using ObjectiveRefinementAgent</text><rect fill="#F1F1F1" height="33.9688" rx="12.5" ry="12.5" style="stroke:#181818;stroke-width:0.5;" width="435" x="38" y="157.9375"/><text fill="#000000" font-family="sans-serif" font-size="12" lengthAdjust="spacing" textLength="415" x="48" y="179.0762">Create Milestones for the refined Objective using TaskCreationAgent</text><rect fill="#F1F1F1" height="33.9688" rx="12.5" ry="12.5" style="stroke:#181818;stroke-width:0.5;" width="187" x="162" y="267.6167"/><text fill="#000000" font-family="sans-serif" font-size="12" lengthAdjust="spacing" textLength="167" x="172" y="288.7554">Set the Milestone Objective</text><rect fill="#F1F1F1" height="33.9688" rx="12.5" ry="12.5" style="stroke:#181818;stroke-width:0.5;" width="420" x="45.5" y="321.5854"/><text fill="#000000" font-family="sans-serif" font-size="12" lengthAdjust="spacing" textLength="400" x="55.5" y="342.7241">Create Tasks for the Milestone Objective using TaskCreationAgent</text><rect fill="#F1F1F1" height="33.9688" rx="12.5" ry="12.5" style="stroke:#181818;stroke-width:0.5;" width="275" x="118" y="431.2646"/><text fill="#000000" font-family="sans-serif" font-size="12" lengthAdjust="spacing" textLength="255" x="128" y="452.4033">If there are no more tasks, break the loop</text><rect fill="#F1F1F1" height="33.9688" rx="12.5" ry="12.5" style="stroke:#181818;stroke-width:0.5;" width="280" x="115.5" y="485.2334"/><text fill="#000000" font-family="sans-serif" font-size="12" lengthAdjust="spacing" textLength="260" x="125.5" y="506.3721">Pop the leftmost task and retrieve its name</text><rect fill="#F1F1F1" height="33.9688" rx="12.5" ry="12.5" style="stroke:#181818;stroke-width:0.5;" width="395" x="58" y="539.2021"/><text fill="#000000" font-family="sans-serif" font-size="12" lengthAdjust="spacing" textLength="375" x="68" y="560.3408">Find the Relevant Context for the task using TaskContextAgent</text><rect fill="#F1F1F1" height="33.9688" rx="12.5" ry="12.5" style="stroke:#181818;stroke-width:0.5;" width="253" x="129" y="593.1709"/><text fill="#000000" font-family="sans-serif" font-size="12" lengthAdjust="spacing" textLength="233" x="139" y="614.3096">Execute the task using ExecutionAgent</text><rect fill="#F1F1F1" height="33.9688" rx="12.5" ry="12.5" style="stroke:#181818;stroke-width:0.5;" width="305" x="103" y="647.1396"/><text fill="#000000" font-family="sans-serif" font-size="12" lengthAdjust="spacing" textLength="285" x="113" y="668.2783">Evaluate the task's result using EvaluationAgent</text><rect fill="#F1F1F1" height="33.9688" rx="12.5" ry="12.5" style="stroke:#181818;stroke-width:0.5;" width="307" x="102" y="701.1084"/><text fill="#000000" font-family="sans-serif" font-size="12" lengthAdjust="spacing" textLength="287" x="112" y="722.2471">Store the Task Context using TaskContextAgent</text><rect fill="#F1F1F1" height="33.9688" rx="12.5" ry="12.5" style="stroke:#181818;stroke-width:0.5;" width="312" x="99.5" y="755.0771"/><text fill="#000000" font-family="sans-serif" font-size="12" lengthAdjust="spacing" textLength="292" x="109.5" y="776.2158">Prioritize remaining tasks using PriorizationAgent</text><rect fill="#F1F1F1" height="33.9688" rx="12.5" ry="12.5" style="stroke:#181818;stroke-width:0.5;" width="159" x="176" y="809.0459"/><text fill="#000000" font-family="sans-serif" font-size="12" lengthAdjust="spacing" textLength="139" x="186" y="830.1846">Dump the current state</text><rect fill="#F1F1F1" height="33.9688" rx="12.5" ry="12.5" style="stroke:#181818;stroke-width:0.5;" width="127" x="192" y="863.0146"/><text fill="#000000" font-family="sans-serif" font-size="12" lengthAdjust="spacing" textLength="107" x="202" y="884.1533">Wait for a second</text><polygon fill="#F1F1F1" points="112.5,375.5542,398.5,375.5542,410.5,387.5542,398.5,399.5542,112.5,399.5542,100.5,387.5542,112.5,375.5542" style="stroke:#181818;stroke-width:0.5;"/><text fill="#000000" font-family="sans-serif" font-size="11" lengthAdjust="spacing" textLength="23" x="259.5" y="409.7646">true</text><text fill="#000000" font-family="sans-serif" font-size="11" lengthAdjust="spacing" textLength="286" x="112.5" y="391.3623">Iterate through tasks up to maxTaskIterationCount</text><rect fill="#F1F1F1" height="33.9688" rx="12.5" ry="12.5" style="stroke:#181818;stroke-width:0.5;" width="424" x="43.5" y="938.9834"/><text fill="#000000" font-family="sans-serif" font-size="12" lengthAdjust="spacing" textLength="404" x="53.5" y="960.1221">Log that the tasks for the Milestone Objective have been executed</text><polygon fill="#F1F1F1" points="201.5,211.9063,309.5,211.9063,321.5,223.9063,309.5,235.9063,201.5,235.9063,189.5,223.9063,201.5,211.9063" style="stroke:#181818;stroke-width:0.5;"/><text fill="#000000" font-family="sans-serif" font-size="11" lengthAdjust="spacing" textLength="23" x="259.5" y="246.1167">true</text><text fill="#000000" font-family="sans-serif" font-size="11" lengthAdjust="spacing" textLength="108" x="201.5" y="227.7144">For each Milestone</text><rect fill="#F1F1F1" height="33.9688" rx="12.5" ry="12.5" style="stroke:#181818;stroke-width:0.5;" width="394" x="58.5" y="1014.9521"/><text fill="#000000" font-family="sans-serif" font-size="12" lengthAdjust="spacing" textLength="374" x="68.5" y="1036.0908">Log that the tasks for the main Objective have been executed</text><ellipse cx="255.5" cy="1079.9209" fill="none" rx="11" ry="11" style="stroke:#222222;stroke-width:1.0;"/><ellipse cx="255.5" cy="1079.9209" fill="#222222" rx="6" ry="6" style="stroke:#111111;stroke-width:1.0;"/><line style="stroke:#181818;stroke-width:1.0;" x1="255.5" x2="255.5" y1="30" y2="50"/><polygon fill="#181818" points="251.5,40,255.5,50,259.5,40,255.5,44" style="stroke:#181818;stroke-width:1.0;"/><line style="stroke:#181818;stroke-width:1.0;" x1="255.5" x2="255.5" y1="83.9688" y2="103.9688"/><polygon fill="#181818" points="251.5,93.9688,255.5,103.9688,259.5,93.9688,255.5,97.9688" style="stroke:#181818;stroke-width:1.0;"/><line style="stroke:#181818;stroke-width:1.0;" x1="255.5" x2="255.5" y1="137.9375" y2="157.9375"/><polygon fill="#181818" points="251.5,147.9375,255.5,157.9375,259.5,147.9375,255.5,151.9375" style="stroke:#181818;stroke-width:1.0;"/><line style="stroke:#181818;stroke-width:1.0;" x1="255.5" x2="255.5" y1="301.5854" y2="321.5854"/><polygon fill="#181818" points="251.5,311.5854,255.5,321.5854,259.5,311.5854,255.5,315.5854" style="stroke:#181818;stroke-width:1.0;"/><line style="stroke:#181818;stroke-width:1.0;" x1="255.5" x2="255.5" y1="465.2334" y2="485.2334"/><polygon fill="#181818" points="251.5,475.2334,255.5,485.2334,259.5,475.2334,255.5,479.2334" style="stroke:#181818;stroke-width:1.0;"/><line style="stroke:#181818;stroke-width:1.0;" x1="255.5" x2="255.5" y1="519.2021" y2="539.2021"/><polygon fill="#181818" points="251.5,529.2021,255.5,539.2021,259.5,529.2021,255.5,533.2021" style="stroke:#181818;stroke-width:1.0;"/><line style="stroke:#181818;stroke-width:1.0;" x1="255.5" x2="255.5" y1="573.1709" y2="593.1709"/><polygon fill="#181818" points="251.5,583.1709,255.5,593.1709,259.5,583.1709,255.5,587.1709" style="stroke:#181818;stroke-width:1.0;"/><line style="stroke:#181818;stroke-width:1.0;" x1="255.5" x2="255.5" y1="627.1396" y2="647.1396"/><polygon fill="#181818" points="251.5,637.1396,255.5,647.1396,259.5,637.1396,255.5,641.1396" style="stroke:#181818;stroke-width:1.0;"/><line style="stroke:#181818;stroke-width:1.0;" x1="255.5" x2="255.5" y1="681.1084" y2="701.1084"/><polygon fill="#181818" points="251.5,691.1084,255.5,701.1084,259.5,691.1084,255.5,695.1084" style="stroke:#181818;stroke-width:1.0;"/><line style="stroke:#181818;stroke-width:1.0;" x1="255.5" x2="255.5" y1="735.0771" y2="755.0771"/><polygon fill="#181818" points="251.5,745.0771,255.5,755.0771,259.5,745.0771,255.5,749.0771" style="stroke:#181818;stroke-width:1.0;"/><line style="stroke:#181818;stroke-width:1.0;" x1="255.5" x2="255.5" y1="789.0459" y2="809.0459"/><polygon fill="#181818" points="251.5,799.0459,255.5,809.0459,259.5,799.0459,255.5,803.0459" style="stroke:#181818;stroke-width:1.0;"/><line style="stroke:#181818;stroke-width:1.0;" x1="255.5" x2="255.5" y1="843.0146" y2="863.0146"/><polygon fill="#181818" points="251.5,853.0146,255.5,863.0146,259.5,853.0146,255.5,857.0146" style="stroke:#181818;stroke-width:1.0;"/><line style="stroke:#181818;stroke-width:1.0;" x1="255.5" x2="255.5" y1="399.5542" y2="431.2646"/><polygon fill="#181818" points="251.5,421.2646,255.5,431.2646,259.5,421.2646,255.5,425.2646" style="stroke:#181818;stroke-width:1.0;"/><line style="stroke:#181818;stroke-width:1.0;" x1="255.5" x2="255.5" y1="896.9834" y2="906.9834"/><line style="stroke:#181818;stroke-width:1.0;" x1="255.5" x2="465" y1="906.9834" y2="906.9834"/><polygon fill="#181818" points="461,655.7217,465,645.7217,469,655.7217,465,651.7217" style="stroke:#181818;stroke-width:1.0;"/><line style="stroke:#181818;stroke-width:1.0;" x1="465" x2="465" y1="387.5542" y2="906.9834"/><line style="stroke:#181818;stroke-width:1.0;" x1="465" x2="410.5" y1="387.5542" y2="387.5542"/><polygon fill="#181818" points="420.5,383.5542,410.5,387.5542,420.5,391.5542,416.5,387.5542" style="stroke:#181818;stroke-width:1.0;"/><line style="stroke:#181818;stroke-width:1.0;" x1="100.5" x2="46" y1="387.5542" y2="387.5542"/><polygon fill="#181818" points="42,641.7217,46,651.7217,50,641.7217,46,645.7217" style="stroke:#181818;stroke-width:1.0;"/><line style="stroke:#181818;stroke-width:1.0;" x1="46" x2="46" y1="387.5542" y2="918.9834"/><line style="stroke:#181818;stroke-width:1.0;" x1="46" x2="255.5" y1="918.9834" y2="918.9834"/><line style="stroke:#181818;stroke-width:1.0;" x1="255.5" x2="255.5" y1="918.9834" y2="938.9834"/><polygon fill="#181818" points="251.5,928.9834,255.5,938.9834,259.5,928.9834,255.5,932.9834" style="stroke:#181818;stroke-width:1.0;"/><line style="stroke:#181818;stroke-width:1.0;" x1="255.5" x2="255.5" y1="355.5542" y2="375.5542"/><polygon fill="#181818" points="251.5,365.5542,255.5,375.5542,259.5,365.5542,255.5,369.5542" style="stroke:#181818;stroke-width:1.0;"/><line style="stroke:#181818;stroke-width:1.0;" x1="255.5" x2="255.5" y1="235.9063" y2="267.6167"/><polygon fill="#181818" points="251.5,257.6167,255.5,267.6167,259.5,257.6167,255.5,261.6167" style="stroke:#181818;stroke-width:1.0;"/><line style="stroke:#181818;stroke-width:1.0;" x1="255.5" x2="255.5" y1="972.9521" y2="982.9521"/><line style="stroke:#181818;stroke-width:1.0;" x1="255.5" x2="479.5" y1="982.9521" y2="982.9521"/><polygon fill="#181818" points="475.5,617.835,479.5,607.835,483.5,617.835,479.5,613.835" style="stroke:#181818;stroke-width:1.0;"/><line style="stroke:#181818;stroke-width:1.0;" x1="479.5" x2="479.5" y1="223.9063" y2="982.9521"/><line style="stroke:#181818;stroke-width:1.0;" x1="479.5" x2="321.5" y1="223.9063" y2="223.9063"/><polygon fill="#181818" points="331.5,219.9063,321.5,223.9063,331.5,227.9063,327.5,223.9063" style="stroke:#181818;stroke-width:1.0;"/><line style="stroke:#181818;stroke-width:1.0;" x1="189.5" x2="24" y1="223.9063" y2="223.9063"/><polygon fill="#181818" points="20,603.835,24,613.835,28,603.835,24,607.835" style="stroke:#181818;stroke-width:1.0;"/><line style="stroke:#181818;stroke-width:1.0;" x1="24" x2="24" y1="223.9063" y2="994.9521"/><line style="stroke:#181818;stroke-width:1.0;" x1="24" x2="255.5" y1="994.9521" y2="994.9521"/><line style="stroke:#181818;stroke-width:1.0;" x1="255.5" x2="255.5" y1="994.9521" y2="1014.9521"/><polygon fill="#181818" points="251.5,1004.9521,255.5,1014.9521,259.5,1004.9521,255.5,1008.9521" style="stroke:#181818;stroke-width:1.0;"/><line style="stroke:#181818;stroke-width:1.0;" x1="255.5" x2="255.5" y1="191.9063" y2="211.9063"/><polygon fill="#181818" points="251.5,201.9063,255.5,211.9063,259.5,201.9063,255.5,205.9063" style="stroke:#181818;stroke-width:1.0;"/><line style="stroke:#181818;stroke-width:1.0;" x1="255.5" x2="255.5" y1="1048.9209" y2="1068.9209"/><polygon fill="#181818" points="251.5,1058.9209,255.5,1068.9209,259.5,1058.9209,255.5,1062.9209" style="stroke:#181818;stroke-width:1.0;"/><!--SRC=[XPB1Ri8m38RlVGhV1jAU04uJ6nBIfY6Oj7DeNPhHEbNYCCJJpqbAMpJ63asLsD_ltquSAyjPDjjWZlg8eAdr3E-xBynPzlCOAZNXS0RUQTeF-nHlaFXfBqj05XOL8xpf6XqRGWUbiS0LWet9nI-r3-KEaTA6BZBVbV0mMGgAAgy6kIbe1nEs7gSPm6oB7BNx-DW_G4Zf38KgWvSR-N-xYJgTenMZ3N9SMUFt5N2KzIsmWKQT0frI15yOJtnjMFoiok308YZvI2WZ_oZp23ifV8W6QsFQUGGIjJPjEiUI6-Cu4g2eaB6orHZkZnsGQd2CBRLa16w3DHuLCImCCPwudqJK6RMUmdtd5w6N4-O-zds5fEFng7hWg6glHiI34wlErtn1Ky8jTijn9bMwjTxo_oxNLXkhMP_3QskKfW1qLnJXb72-NVRPDsd8kRTMOk1O6XXdV2gT9gV0OMwe246a8ZwExhsz6YbPAUuRl__gAYNB3f40quX5irVCxgc5_luHogHQ-mC0]--></g></svg>